<svg version="1.1" xmlns="http://www.w3.org/2000/svg" xmlns:xlink="http://www.w3.org/1999/xlink" width="48" height="48"><defs><linearGradient x1="0" y1="0" x2="0" y2="0" gradientUnits="userSpaceOnUse" id="color-1"><stop offset="1" stop-color="#000000" stop-opacity="0"></stop><stop offset="1" stop-color="#000000" stop-opacity="0"></stop></linearGradient><filter id="dropshadow-base"><feColorMatrix type="matrix" values="0 0 0 0 0  0 0 0 0 0  0 0 0 0 0  0 0 0 .8 0"></feColorMatrix> <feOffset dx="0" dy="1"></feOffset> <feGaussianBlur stdDeviation="1"></feGaussianBlur> <feComposite in="SourceGraphic"></feComposite></filter><filter id="dropshadow-banner" x="-10%" y="-10%" width="120%" height="130%"><feColorMatrix type="matrix" values="0 0 0 0 0  0 0 0 0 0  0 0 0 0 0  0 0 0 .4 0"></feColorMatrix> <feOffset dx="0" dy="1"></feOffset> <feGaussianBlur stdDeviation="0.5"></feGaussianBlur> <feComposite in="SourceGraphic"></feComposite></filter></defs><g fill="none" fill-rule="nonzero" stroke="none" stroke-width="none" stroke-linecap="butt" stroke-linejoin="miter" stroke-miterlimit="10" stroke-dasharray="" stroke-dashoffset="0" font-family="none" font-weight="none" font-size="none" text-anchor="none" style="mix-blend-mode: normal"><path d="" fill="url(#color-1)" stroke-width="1"></path><path d="M42.7382,18.58385c0,-7.18127 -5.82491,-13.00619 -13.00619,-13.00619c-7.18127,0 -13.00619,5.82491 -13.00619,13.00619c0,6.43806 4.68223,11.7706 10.8323,12.81109v7.31134h-14.86421v-5.57408h1.85803v-7.43211c0,-1.02191 -0.83611,-1.85803 -1.85803,-1.85803h-5.57408c-1.02191,0 -1.85803,0.83611 -1.85803,1.85803v7.43211h1.85803v9.29013h29.72843v-3.71605h-5.57408v-7.20914c6.45664,-0.76179 11.46403,-6.25226 11.46403,-12.91329zM9.90687,21.98404c1.54216,0 2.78704,-1.24488 2.78704,-2.78704c0,-1.54216 -1.24488,-2.78704 -2.78704,-2.78704c-1.54216,0 -2.78704,1.24488 -2.78704,2.78704c0,1.54216 1.24488,2.78704 2.78704,2.78704z" fill="none" stroke-width="0"></path><path d="M31.27418,31.49714v7.20914h5.57408v3.71605h-29.72843v-9.29013h-1.85803v-7.43211c0,-1.02191 0.83611,-1.85803 1.85803,-1.85803h5.57408c1.02191,0 1.85803,0.83611 1.85803,1.85803v7.43211h-1.85803v5.57408h14.86421v-7.31134c-6.15007,-1.0405 -10.8323,-6.37303 -10.8323,-12.81109c0,-7.18127 5.82491,-13.00619 13.00619,-13.00619c7.18127,0 13.00619,5.82491 13.00619,13.00619c0,6.66103 -5.00738,12.1515 -11.46403,12.91329zM7.11983,19.197c0,-1.54216 1.24488,-2.78704 2.78704,-2.78704c1.54216,0 2.78704,1.24488 2.78704,2.78704c0,1.54216 -1.24488,2.78704 -2.78704,2.78704c-1.54216,0 -2.78704,-1.24488 -2.78704,-2.78704z" fill="#ffffff" stroke-width="0"></path><path d="M7,43c-1.10457,0 -2,-0.89543 -2,-2v-34c0,-1.10457 0.89543,-2 2,-2h34c1.10457,0 2,0.89543 2,2v34c0,1.10457 -0.89543,2 -2,2z" id="base 1 9" fill-opacity="0" fill="#ffffff" stroke-width="1"></path><path d="M2,24c0,-12.15026 9.84974,-22 22,-22c12.15026,0 22,9.84974 22,22c0,12.15026 -9.84974,22 -22,22c-12.15026,0 -22,-9.84974 -22,-22z" id="base 1 5 1" fill="none" stroke-width="1"></path><path d="M2,24c0,-12.15026 9.84974,-22 22,-22c12.15026,0 22,9.84974 22,22c0,12.15026 -9.84974,22 -22,22c-12.15026,0 -22,-9.84974 -22,-22z" id="base 1 1 1" fill="none" stroke-width="1"></path><g fill="#000000" stroke-width="1" font-family="Roboto, sans-serif" font-weight="400" font-size="14" text-anchor="start"></g><rect x="2" y="2" width="44" height="22" fill="none" stroke-width="1"></rect><path d="M2,24v-22h44v22z" fill="none" stroke-width="1"></path><path d="M2,24v-22h44v22z" fill="none" stroke-width="1"></path><path d="M2,24v-22h44v22z" fill="none" stroke-width="1"></path><path d="M2,24v-22h44v22z" fill="none" stroke-width="1"></path><g fill="#000000" stroke-width="1" font-family="Roboto, sans-serif" font-weight="400" font-size="14" text-anchor="start"></g><rect x="2" y="2" width="44" height="22" fill="none" stroke-width="1"></rect><path d="M2,24v-22h44v22z" fill="none" stroke-width="1"></path><path d="M2,24v-22h44v22z" fill="none" stroke-width="1"></path><path d="M2,24v-22h44v22z" fill="none" stroke-width="1"></path><path d="M2,24v-22h44v22z" fill="none" stroke-width="1"></path></g></svg>