<svg version="1.1" xmlns="http://www.w3.org/2000/svg" xmlns:xlink="http://www.w3.org/1999/xlink" width="48" height="48"><defs><linearGradient x1="0" y1="0" x2="0" y2="0" gradientUnits="userSpaceOnUse" id="color-1"><stop offset="1" stop-color="#000000" stop-opacity="0"></stop><stop offset="1" stop-color="#000000" stop-opacity="0"></stop></linearGradient><filter id="dropshadow-base"><feColorMatrix type="matrix" values="0 0 0 0 0  0 0 0 0 0  0 0 0 0 0  0 0 0 .8 0"></feColorMatrix> <feOffset dx="0" dy="1"></feOffset> <feGaussianBlur stdDeviation="1"></feGaussianBlur> <feComposite in="SourceGraphic"></feComposite></filter><filter id="dropshadow-banner" x="-10%" y="-10%" width="120%" height="130%"><feColorMatrix type="matrix" values="0 0 0 0 0  0 0 0 0 0  0 0 0 0 0  0 0 0 .4 0"></feColorMatrix> <feOffset dx="0" dy="1"></feOffset> <feGaussianBlur stdDeviation="0.5"></feGaussianBlur> <feComposite in="SourceGraphic"></feComposite></filter></defs><g fill="none" fill-rule="nonzero" stroke="none" stroke-width="none" stroke-linecap="butt" stroke-linejoin="miter" stroke-miterlimit="10" stroke-dasharray="" stroke-dashoffset="0" font-family="none" font-weight="none" font-size="none" text-anchor="none" style="mix-blend-mode: normal"><path d="" fill="url(#color-1)" stroke-width="1"></path><path d="M33.32604,21.30437c0,-3.57414 -2.89907,-6.47321 -6.47321,-6.47321c-3.57414,0 -6.47321,2.89907 -6.47321,6.47321c0,3.20424 2.33035,5.85825 5.39126,6.37611v3.63887h-7.39795v-2.77423h0.92474v-3.69898c0,-0.50861 -0.41613,-0.92474 -0.92474,-0.92474h-2.77423c-0.50861,0 -0.92474,0.41613 -0.92474,0.92474v3.69898h0.92474v4.62372h14.7959v-1.84949h-2.77423v-3.58801c3.21349,-0.37915 5.70567,-3.11176 5.70567,-6.42697zM16.98582,22.99665c0.76754,0 1.38712,-0.61958 1.38712,-1.38712c0,-0.76754 -0.61958,-1.38712 -1.38712,-1.38712c-0.76754,0 -1.38712,0.61958 -1.38712,1.38712c0,0.76754 0.61958,1.38712 1.38712,1.38712z" fill="none" stroke-width="0"></path><path d="M27.62037,27.73134v3.58801h2.77423v1.84949h-14.7959v-4.62372h-0.92474v-3.69898c0,-0.50861 0.41613,-0.92474 0.92474,-0.92474h2.77423c0.50861,0 0.92474,0.41613 0.92474,0.92474v3.69898h-0.92474v2.77423h7.39795v-3.63887c-3.0609,-0.51786 -5.39126,-3.17187 -5.39126,-6.37611c0,-3.57414 2.89907,-6.47321 6.47321,-6.47321c3.57414,0 6.47321,2.89907 6.47321,6.47321c0,3.31521 -2.49218,6.04783 -5.70567,6.42697zM15.5987,21.60954c0,-0.76754 0.61958,-1.38712 1.38712,-1.38712c0.76754,0 1.38712,0.61958 1.38712,1.38712c0,0.76754 -0.61958,1.38712 -1.38712,1.38712c-0.76754,0 -1.38712,-0.61958 -1.38712,-1.38712z" fill="#ffffff" stroke-width="0"></path><path d="M2,24c0,-12.15026 9.84974,-22 22,-22c12.15026,0 22,9.84974 22,22c0,12.15026 -9.84974,22 -22,22c-12.15026,0 -22,-9.84974 -22,-22z" id="base 1 9" fill-opacity="0" fill="#ffffff" stroke-width="1"></path><path d="M2,24c0,-12.15026 9.84974,-22 22,-22c12.15026,0 22,9.84974 22,22c0,12.15026 -9.84974,22 -22,22c-12.15026,0 -22,-9.84974 -22,-22z" id="base 1 5 1" fill="none" stroke-width="1"></path><path d="M2,24c0,-12.15026 9.84974,-22 22,-22c12.15026,0 22,9.84974 22,22c0,12.15026 -9.84974,22 -22,22c-12.15026,0 -22,-9.84974 -22,-22z" id="base 1 1 1" fill="none" stroke-width="1"></path><g fill="#000000" stroke-width="1" font-family="Roboto, sans-serif" font-weight="400" font-size="14" text-anchor="start"></g><rect x="2" y="2" width="44" height="22" fill="none" stroke-width="1"></rect><path d="M2,24v-22h44v22z" fill="none" stroke-width="1"></path><path d="M2,24v-22h44v22z" fill="none" stroke-width="1"></path><path d="M2,24v-22h44v22z" fill="none" stroke-width="1"></path><path d="M2,24v-22h44v22z" fill="none" stroke-width="1"></path><g fill="#000000" stroke-width="1" font-family="Roboto, sans-serif" font-weight="400" font-size="14" text-anchor="start"></g><rect x="2" y="2" width="44" height="22" fill="none" stroke-width="1"></rect><path d="M2,24v-22h44v22z" fill="none" stroke-width="1"></path><path d="M2,24v-22h44v22z" fill="none" stroke-width="1"></path><path d="M2,24v-22h44v22z" fill="none" stroke-width="1"></path><path d="M2,24v-22h44v22z" fill="none" stroke-width="1"></path></g></svg>